<svg xmlns="http://www.w3.org/2000/svg" viewBox="0 0 128 128" width="128" height="128">
  <!-- Background -->
  <rect width="128" height="128" fill="#0a0a0a" rx="20"/>

  <!-- Outer hexagon (cyberpunk frame) -->
  <polygon points="64,15 95,32 95,66 64,83 33,66 33,32"
           fill="none"
           stroke="#00ff8c"
           stroke-width="3"
           opacity="0.8"/>

  <!-- Inner glow effect -->
  <polygon points="64,20 90,35 90,63 64,78 38,63 38,35"
           fill="#00ff8c"
           opacity="0.1"/>

  <!-- Letter C stylized -->
  <path d="M 64 35
           A 18 18 0 1 1 64 63
           M 82 49
           L 72 49
           M 82 57
           L 72 57"
        fill="none"
        stroke="#00ff8c"
        stroke-width="4"
        stroke-linecap="round"/>

  <!-- Circuit lines (cyberpunk detail) -->
  <line x1="33" y1="32" x2="20" y2="25" stroke="#00ff8c" stroke-width="2" opacity="0.6"/>
  <circle cx="20" cy="25" r="2" fill="#00ff8c" opacity="0.8"/>

  <line x1="95" y1="32" x2="108" y2="25" stroke="#00ff8c" stroke-width="2" opacity="0.6"/>
  <circle cx="108" cy="25" r="2" fill="#00ff8c" opacity="0.8"/>

  <line x1="33" y1="66" x2="20" y2="73" stroke="#00ff8c" stroke-width="2" opacity="0.6"/>
  <circle cx="20" cy="73" r="2" fill="#00ff8c" opacity="0.8"/>

  <line x1="95" y1="66" x2="108" y2="73" stroke="#00ff8c" stroke-width="2" opacity="0.6"/>
  <circle cx="108" cy="73" r="2" fill="#00ff8c" opacity="0.8"/>

  <!-- Bottom accent line -->
  <line x1="45" y1="100" x2="83" y2="100" stroke="#00ff8c" stroke-width="3" stroke-linecap="round" opacity="0.8"/>
  <line x1="48" y1="105" x2="80" y2="105" stroke="#00ff8c" stroke-width="2" stroke-linecap="round" opacity="0.5"/>

  <!-- Corner brackets (cyberpunk detail) -->
  <path d="M 15 15 L 15 25 M 15 15 L 25 15" stroke="#00ff8c" stroke-width="2" opacity="0.6"/>
  <path d="M 113 15 L 113 25 M 113 15 L 103 15" stroke="#00ff8c" stroke-width="2" opacity="0.6"/>
  <path d="M 15 113 L 15 103 M 15 113 L 25 113" stroke="#00ff8c" stroke-width="2" opacity="0.6"/>
  <path d="M 113 113 L 113 103 M 113 113 L 103 113" stroke="#00ff8c" stroke-width="2" opacity="0.6"/>
</svg>
